<?xml version="1.0" standalone="no"?>
<!DOCTYPE svg PUBLIC "-//W3C//DTD SVG 20010904//EN"
 "http://www.w3.org/TR/2001/REC-SVG-20010904/DTD/svg10.dtd">
<svg version="1.0" xmlns="http://www.w3.org/2000/svg"
 width="700.000000pt" height="700.000000pt" viewBox="0 0 700.000000 700.000000"
 preserveAspectRatio="xMidYMid meet">
<metadata>
Created by potrace 1.14, written by Peter Selinger 2001-2017
</metadata>
<g transform="translate(0.000000,700.000000) scale(0.100000,-0.100000)"
fill="#000000" stroke="none">
<path d="M6580 5630 c-14 -5 -51 -16 -82 -25 l-58 -16 0 -545 c0 -299 3 -544
8 -544 6 0 125 31 175 46 16 5 17 38 15 547 -3 590 0 557 -58 537z"/>
<path d="M362 5558 c-18 -18 -17 -531 1 -546 6 -5 595 -166 1307 -357 712
-192 1329 -357 1370 -368 42 -12 84 -18 93 -14 15 6 17 32 17 281 l0 274 -47
16 c-27 8 -94 27 -150 41 -57 14 -657 174 -1334 355 -677 182 -1234 330 -1238
330 -4 0 -12 -5 -19 -12z"/>
<path d="M4610 5215 c-234 -63 -439 -122 -456 -131 -36 -18 -54 -51 -54 -95 0
-40 56 -99 94 -99 15 0 172 39 349 86 177 48 378 101 446 119 68 18 135 42
150 53 77 58 34 183 -63 181 -23 0 -232 -52 -466 -114z"/>
<path d="M4435 4800 c-341 -92 -628 -171 -637 -175 -28 -11 -48 -52 -48 -96 0
-33 6 -47 31 -70 20 -19 42 -29 62 -29 40 0 1264 328 1292 346 66 43 54 149
-20 180 -19 8 -40 14 -47 13 -7 0 -292 -76 -633 -169z"/>
<path d="M4420 4430 c-557 -150 -627 -171 -647 -195 -25 -29 -30 -78 -12 -119
11 -23 62 -56 88 -56 11 0 1106 291 1228 326 103 30 135 114 69 180 -26 26
-42 34 -67 33 -19 0 -315 -76 -659 -169z"/>
<path d="M1209 4427 c-60 -40 -63 -133 -5 -170 29 -20 995 -277 1037 -277 86
1 130 106 72 169 -26 28 -67 41 -534 166 -279 74 -513 135 -521 135 -8 0 -30
-10 -49 -23z"/>
<path d="M6560 4215 c-47 -12 -607 -163 -1245 -334 -1094 -294 -1162 -313
-1187 -341 -43 -46 -31 -132 21 -160 43 -22 34 -24 776 175 550 148 1305 350
1513 404 129 34 247 68 264 77 55 28 70 110 29 158 -13 15 -72 48 -83 45 -2 0
-41 -11 -88 -24z"/>
<path d="M4275 4025 c-231 -63 -431 -117 -444 -120 -13 -3 -36 -19 -52 -35
-33 -33 -38 -74 -14 -120 19 -36 43 -50 88 -50 19 0 234 54 478 119 496 133
489 130 489 215 0 59 -50 108 -108 105 -9 0 -206 -52 -437 -114z"/>
<path d="M362 3998 c-16 -16 -17 -1074 -2 -1083 21 -13 1186 -322 1197 -318 7
3 15 19 18 36 8 45 1 1044 -7 1052 -5 6 -1013 280 -1169 318 -15 4 -30 2 -37
-5z"/>
<path d="M6540 3844 c-85 -25 -1859 -502 -2430 -654 -275 -73 -308 -84 -332
-111 -60 -64 -18 -169 68 -169 32 0 654 164 2114 556 151 41 372 99 490 129
118 30 229 62 247 71 29 15 63 65 63 94 0 28 -35 82 -61 95 -37 20 -57 18
-159 -11z"/>
<path d="M2231 3586 c-56 -31 -67 -108 -23 -156 25 -27 57 -38 382 -126 195
-52 395 -106 443 -120 49 -13 103 -24 121 -24 71 0 120 77 92 143 -8 20 -25
42 -38 51 -12 8 -129 42 -258 76 -129 34 -326 86 -436 115 -212 58 -244 62
-283 41z"/>
<path d="M6530 3474 c-47 -13 -623 -168 -1280 -345 -1478 -396 -1410 -377
-1442 -390 -15 -6 -34 -22 -43 -35 -17 -27 -20 -86 -5 -115 13 -23 61 -49 91
-49 20 0 406 102 1969 522 267 71 569 151 672 178 103 26 199 55 214 65 14 9
32 32 40 52 29 68 -22 144 -95 142 -20 0 -74 -11 -121 -25z"/>
<path d="M1854 3296 c-44 -44 -47 -92 -6 -136 25 -28 61 -39 477 -150 248 -67
530 -143 627 -170 97 -28 187 -50 200 -50 41 0 86 36 99 78 15 51 -8 104 -54
125 -18 9 -122 39 -232 67 -110 28 -384 100 -608 161 -224 60 -422 109 -439
109 -21 0 -40 -10 -64 -34z"/>
<path d="M1892 2958 c-36 -10 -72 -57 -72 -96 0 -31 26 -79 50 -92 10 -6 252
-73 537 -150 285 -77 568 -153 628 -170 122 -34 150 -32 187 8 34 36 42 74 24
116 -19 47 -46 59 -248 110 -95 24 -366 96 -603 159 -515 137 -463 125 -503
115z"/>
<path d="M5390 2799 c-19 -5 -386 -102 -815 -218 -701 -188 -781 -211 -802
-235 -47 -55 -15 -155 56 -171 20 -4 159 29 457 109 236 63 591 158 789 211
198 53 373 101 388 107 41 16 67 55 67 99 0 69 -65 115 -140 98z"/>
<path d="M314 2660 c-62 -25 -84 -115 -41 -166 21 -24 87 -44 653 -195 346
-93 642 -169 657 -169 43 0 97 58 97 104 0 65 -36 92 -180 131 -479 130 -1141
305 -1152 304 -7 0 -23 -4 -34 -9z"/>
<path d="M6490 2580 c-52 -15 -662 -180 -1355 -365 -816 -218 -1264 -343
-1272 -353 -10 -12 -13 -141 -13 -568 0 -485 2 -553 15 -564 13 -11 243 48
1388 354 755 203 1378 373 1385 378 9 8 12 131 10 577 l-3 566 -30 2 c-16 1
-73 -11 -125 -27z"/>
<path d="M1890 2593 c-79 -29 -91 -151 -20 -188 44 -23 883 -245 924 -245 55
0 96 44 96 102 0 82 1 82 -505 217 -445 120 -466 125 -495 114z"/>
<path d="M298 2284 c-35 -19 -48 -43 -48 -92 0 -52 32 -85 101 -105 316 -91
1227 -327 1244 -323 87 22 113 142 41 189 -12 8 -244 74 -516 147 -272 72
-551 147 -620 166 -138 38 -163 40 -202 18z"/>
<path d="M279 1901 c-40 -40 -41 -98 -1 -140 25 -28 71 -42 645 -196 340 -91
634 -165 653 -165 20 0 44 5 55 10 23 13 49 61 49 92 0 34 -34 83 -66 96 -66
26 -1234 332 -1268 332 -28 0 -45 -7 -67 -29z"/>
<path d="M314 1560 c-36 -14 -64 -59 -64 -102 0 -78 6 -81 477 -206 408 -109
422 -112 457 -98 36 15 66 59 66 96 0 29 -26 77 -48 89 -21 11 -838 231 -855
230 -7 0 -22 -4 -33 -9z"/>
</g>
</svg>
